<svg width="406" height="397" viewBox="0 0 406 397" fill="none" xmlns="http://www.w3.org/2000/svg">
<rect width="406" height="397" rx="50" fill="white"/>
<g clip-path="url(#clip0_26_9)">
<path d="M352.421 236.815C352.421 312.028 291.458 373 216.256 373C141.055 373 80.0915 312.028 80.0915 236.815C80.0915 161.602 141.055 100.629 216.256 100.629C291.458 100.629 352.421 161.602 352.421 236.815Z" fill="#1A1B26"/>
<path d="M347.436 99.2721C352.771 147.661 288.119 194.495 203.032 203.879C117.945 213.264 44.6431 181.645 39.3078 133.256C33.9726 84.8678 98.6243 38.0336 183.712 28.6492C268.799 19.2647 342.101 50.8837 347.436 99.2721Z" fill="#1ABC9C"/>
<path d="M252.039 76.4186C265.454 77.2856 271.041 94.0078 260.841 102.767L183.944 168.8C175.863 175.74 163.326 172.277 159.951 162.173L135.707 89.6036C132.331 79.4997 140.268 69.1953 150.898 69.8823L252.039 76.4186Z" fill="#7AA2F7"/>
<path d="M358.943 274.975C359.909 285.602 348.517 295.325 333.497 296.691C318.477 298.057 305.517 290.55 304.551 279.924C303.584 269.297 314.977 259.574 329.997 258.208C345.017 256.842 357.976 264.349 358.943 274.975Z" fill="#DB4B4B"/>
<path d="M136.233 298.838C137.2 309.465 125.807 319.187 110.787 320.553C95.7674 321.92 82.8079 314.413 81.8414 303.786C80.875 293.159 92.2676 283.437 107.287 282.07C122.307 280.704 135.267 288.211 136.233 298.838Z" fill="#DB4B4B"/>
<path d="M194.875 247.471C196.723 266.302 190.856 282.29 181.77 283.182C172.684 284.074 163.82 269.532 161.972 250.702C160.123 231.871 165.991 215.883 175.077 214.991C184.163 214.099 193.027 228.641 194.875 247.471Z" fill="#7AA2F7"/>
<path d="M271.12 240.262C273.628 259.016 268.325 275.2 259.276 276.411C250.227 277.621 240.858 263.4 238.351 244.646C235.843 225.892 241.145 209.707 250.194 208.497C259.243 207.286 268.612 221.508 271.12 240.262Z" fill="#7AA2F7"/>
<path d="M185.367 229.733C185.956 238.718 181.798 246.305 176.081 246.68C170.364 247.055 165.252 240.075 164.663 231.09C164.074 222.105 168.232 214.517 173.949 214.142C179.666 213.768 184.778 220.748 185.367 229.733Z" fill="#D9D9D9"/>
<path d="M259.329 222.574C259.917 231.559 255.76 239.147 250.043 239.521C244.326 239.896 239.214 232.916 238.625 223.931C238.036 214.946 242.193 207.358 247.911 206.984C253.628 206.609 258.74 213.589 259.329 222.574Z" fill="#D9D9D9"/>
<path d="M256.768 120.564C275.242 108.127 268.285 79.4201 246.167 76.8197L165.035 67.281C148.433 65.3292 134.971 80.5231 138.908 96.7692L152.275 151.929C156.212 168.175 175.136 175.521 189.003 166.185L256.768 120.564Z" fill="#7AA2F7" stroke="#1E1E1E" stroke-width="8"/>
</g>
<defs>
<clipPath id="clip0_26_9">
<rect width="320" height="350" fill="white" transform="translate(39 23)"/>
</clipPath>
</defs>
</svg>
